<?xml version="1.0" encoding="UTF-8" standalone="no"?>
<!DOCTYPE svg PUBLIC "-//W3C//DTD SVG 1.1//EN" "http://www.w3.org/Graphics/SVG/1.1/DTD/svg11.dtd">
<svg width="100%" height="100%" viewBox="0 0 800 800" version="1.1" xmlns="http://www.w3.org/2000/svg" xmlns:xlink="http://www.w3.org/1999/xlink" xml:space="preserve" xmlns:serif="http://www.serif.com/" style="fill-rule:evenodd;clip-rule:evenodd;stroke-linejoin:round;stroke-miterlimit:2;">
    <g id="Logo" transform="matrix(2.13531,0,0,2.13531,-1103.56,-289.858)">
        <g id="arrow" transform="matrix(1,0,0,1,-33.8798,10.5106)">
            <path d="M701.085,347.183C701.085,347.183 746.16,365.071 812.964,322.584C843.89,302.915 869.02,268.868 869.02,268.868L844.833,247.893L925.345,224.58L917.384,308.183L892.341,287.237C892.341,287.237 880.102,309.362 830.22,347.388C771.356,392.262 696.379,376.135 696.379,376.135L696.262,352.341L701.085,347.183Z" style="fill:rgb(39,112,131);"/>
        </g>
        <path d="M587.894,384L587.894,330.614L606.938,330.614L606.938,449.622L672.942,449.622L695.588,427.041L628.899,427.167L628.899,349.217L646.736,330.614L587.894,330.614L587.894,318.157L689.173,318.157L689.527,318.488L651.976,358.07L652.004,404.985L740.568,404.217C740.568,404.217 746.12,404.758 754.63,397.702C759.915,393.32 761.592,386.847 761.592,386.847L787.869,373.206C787.869,373.206 788.989,393.422 775.673,408.687C759.108,427.675 743.819,427.167 743.819,427.167L727.188,427.041L681.962,473.227L583.044,473.109L582.971,400.522C582.971,400.522 582.494,394.28 585.211,393.03C588.354,391.584 587.894,384 587.894,384Z" style="fill:rgb(62,71,80);"/>
        <path d="M731.444,298.995C731.444,298.995 752.914,304.983 759.468,309.088C767.833,314.327 776.355,323.731 776.355,323.731L760.116,333.659C760.116,333.659 745.704,317.733 732.394,310.498C721.399,304.522 693.101,296.917 693.101,296.917C693.101,296.917 727.364,291.045 729.125,263.348C730.282,245.16 712.979,242.009 712.979,242.009L652.001,241.999L652.008,278.993L689.527,318.488L587.894,318.488C587.894,318.488 587.778,254.382 587.76,252.393C587.704,246.474 582.896,243.622 582.896,243.622L583.312,172.909L666.702,173.049L689.527,196.733L606.532,196.733L606.532,307.137L647.05,307.137L628.997,288.604L628.997,219.085L713.879,219.085C713.879,219.085 745.912,222.268 752.433,253.045C759.199,284.978 731.444,298.995 731.444,298.995Z" style="fill:rgb(62,71,80);"/>
        <path d="M828.521,343.988C828.521,343.988 849.351,390.477 810.815,439.855C783.743,474.543 743.15,473.227 743.15,473.227L696.807,473.227L719.694,450.026C719.694,450.026 766.853,456.286 793.46,424.115C817.294,395.295 808.91,360.645 808.91,360.645L828.521,343.988Z" style="fill:rgb(39,112,131);"/>
        <path d="M802.747,301.652L783.99,318.309C783.99,318.309 768.569,308.682 757.523,305.57C747.409,302.72 731.442,298.995 731.442,298.995C731.442,298.995 781.407,279.663 770.395,237.503C760.556,199.836 722.821,196.874 722.821,196.874L688.757,196.729L666.438,173.049L724.97,173.823C724.97,173.823 769.094,176.325 789.197,218.643C807.49,257.153 782.228,289.687 782.228,289.687C782.228,289.687 789.438,293.066 792.593,294.906C796.013,296.9 802.747,301.652 802.747,301.652Z" style="fill:rgb(39,112,131);"/>
        <path d="M576.265,272.979L576.265,369.001C576.265,369.001 576.265,378.016 564.56,378.016C552.05,378.016 552.05,369.001 552.05,369.001L552.05,272.979C552.05,272.979 552.05,261.995 564.56,261.995C576.265,261.995 576.265,272.979 576.265,272.979Z" style="fill:rgb(62,71,80);"/>
        <g transform="matrix(1,0,0,0.459245,-35.2366,170.386)">
            <path d="M576.265,282.614L576.265,367.511C576.265,367.511 576.265,387.055 564.56,387.055C552.05,387.055 552.05,367.511 552.05,367.511L552.05,282.614C552.05,282.614 552.05,261.995 564.56,261.995C576.265,261.995 576.265,282.614 576.265,282.614Z" style="fill:rgb(62,71,80);"/>
        </g>
    </g>
</svg>
